<svg xmlns="http://www.w3.org/2000/svg" width="52" height="52" viewBox="0 0 52 52" fill="none">
<path d="M25.9997 34.5391C25.9997 34.5391 21.6331 38.878 21.1572 39.3572C21.1572 39.3572 21.1572 44.2565 21.1572 44.2565C21.1572 44.3784 21.206 44.4922 21.3035 44.5653L25.7397 48.2459C25.8899 48.3758 26.1096 48.3759 26.2597 48.2459L30.696 44.5653C30.7935 44.4922 30.8423 44.3784 30.8423 44.2565V39.3572C30.3686 38.8815 25.9997 34.5391 25.9997 34.5391Z" fill="#D0D0D0"/>
<path d="M25.9997 17.4605C25.9997 17.4605 30.3664 13.121 30.8422 12.6424L30.8423 7.43428C30.8423 7.31244 30.7854 7.19054 30.6798 7.10931L26.2435 3.73742C26.0972 3.6318 25.9023 3.6318 25.756 3.73742L21.3197 7.10931C21.2141 7.19055 21.1572 7.31244 21.1572 7.43428V12.6424C21.6308 13.1176 25.9997 17.4605 25.9997 17.4605Z" fill="#D0D0D0"/>
<path d="M17.4202 25.9998C17.4202 25.9998 13.0672 21.6529 12.5777 21.1817C12.5777 21.1816 7.65396 21.1816 7.65396 21.1816C7.53212 21.1816 7.41835 21.2304 7.34521 21.3198L3.64021 25.7397C3.51837 25.886 3.51837 26.1135 3.64021 26.2598L7.34521 30.6798C7.41836 30.7691 7.53212 30.8179 7.65396 30.8179H12.5777C12.5777 30.8179 16.5872 26.8271 17.4202 25.9998Z" fill="#D0D0D0"/>
<path d="M48.3682 25.756L44.9801 21.336C44.8988 21.2385 44.7769 21.1816 44.6551 21.1816H39.4226C38.9424 21.6545 34.5801 25.9998 34.5801 25.9998C34.5801 25.9998 38.939 30.3427 39.4226 30.8179C39.4226 30.8179 44.6551 30.8179 44.6551 30.8179C44.7769 30.8179 44.8988 30.761 44.9801 30.6635L48.3682 26.2435C48.4819 26.0973 48.4819 25.9023 48.3682 25.756Z" fill="#D0D0D0"/>
<path d="M13.0809 32.0371L9.60338 35.4984C9.51401 35.5878 9.47335 35.7015 9.48149 35.8234L10.0096 41.5515C10.0259 41.7465 10.1803 41.9009 10.3753 41.9171L16.1277 42.4371C16.2496 42.4453 16.3634 42.4046 16.4527 42.3152L19.9384 38.8459C19.9448 38.1753 19.9384 32.0371 19.9384 32.0371C18.7358 32.0371 13.0809 32.0371 13.0809 32.0371Z" fill="#D0D0D0"/>
<path d="M38.9191 19.9634L42.616 16.2827C42.7054 16.1934 42.746 16.0715 42.7298 15.9415L41.9904 10.4327C41.966 10.254 41.8278 10.1078 41.641 10.0834L36.1079 9.35215C35.9779 9.33588 35.856 9.3765 35.7666 9.46585L32.0616 13.1546C32.0548 13.8231 32.0616 19.9634 32.0616 19.9634C33.2603 19.9635 38.9191 19.9634 38.9191 19.9634Z" fill="#D0D0D0"/>
<path d="M13.0808 19.9635C14.8414 19.974 18.145 19.956 19.9384 19.9636C19.9383 19.9635 19.9457 13.8293 19.9383 13.1548C19.9384 13.1548 16.4527 9.6854 16.4527 9.6854C16.3634 9.59603 16.2496 9.55542 16.1277 9.56351L10.3753 10.0835C10.1803 10.0998 10.0259 10.2542 10.0096 10.4491L9.48149 16.1773C9.47335 16.2992 9.51402 16.4129 9.60338 16.5023L13.0808 19.9635Z" fill="#D0D0D0"/>
<path d="M38.9184 32.0369C37.1576 32.0254 33.8545 32.0451 32.0608 32.0369C32.0734 33.8329 32.0518 37.0849 32.0609 38.8456L35.7659 42.5344C35.839 42.6157 35.9446 42.6563 36.0502 42.6563C36.1673 42.6605 41.5371 41.9156 41.6403 41.9169C41.8271 41.8925 41.9652 41.7463 41.9896 41.5675L42.729 36.0588C42.7452 35.9287 42.7046 35.8069 42.6152 35.7175L38.9184 32.0369Z" fill="#D0D0D0"/>
<path d="M37.6923 30.8183C37.2242 30.3492 32.8498 26.0002 32.8498 26.0002C32.8498 26.0002 37.2234 21.6533 37.6923 21.1821C37.0321 21.1755 35.4846 21.1868 34.808 21.1821C34.808 21.1821 30.8429 21.1821 30.8429 21.1821C30.8306 19.4106 30.8518 16.1084 30.8429 14.3652C29.6129 15.5842 27.2578 17.9373 26.0004 19.1833C26.0004 19.1833 21.6299 14.8291 21.1579 14.3652C21.1516 15.023 21.1579 21.1821 21.1579 21.1821C19.375 21.1942 16.0634 21.1733 14.3086 21.1821C15.5354 22.4099 17.8939 24.7488 19.1511 26.0002C19.1511 26.0002 14.7712 30.3432 14.3086 30.8183C14.9687 30.8249 21.1579 30.8183 21.1579 30.8183C21.1702 32.5898 21.149 35.892 21.1579 37.6351C22.3814 36.4093 24.7463 34.0666 26.0004 32.8171C26.0004 32.8171 30.3671 37.1775 30.8429 37.6351C30.8493 36.9774 30.8429 30.8183 30.8429 30.8183C32.0088 30.8168 37.6923 30.8183 37.6923 30.8183Z" fill="#D0D0D0"/>
</svg>